<?xml version="1.0" encoding="UTF-8"?>
<svg version="1.1" xmlns="http://www.w3.org/2000/svg" width="225" height="225">
<path d="M0 0 C74.25 0 148.5 0 225 0 C225 74.25 225 148.5 225 225 C150.75 225 76.5 225 0 225 C0 150.75 0 76.5 0 0 Z " fill="#E30138" transform="translate(0,0)"/>
<path d="M0 0 C3.0537225 1.02584277 4.09547075 2.40054285 6.06762695 4.92456055 C16.15557282 16.79715233 32.84969726 25.57381198 48.43994141 27.09887695 C51.65588515 27.23642801 54.84893767 27.26741201 58.06762695 27.23706055 C59.208125 27.22876221 60.34862305 27.22046387 61.52368164 27.21191406 C80.39267517 26.83629865 97.43600218 20.90158897 111.38012695 7.79956055 C113.82847486 5.21886951 116.15272841 2.57274549 118.38012695 -0.20043945 C124.0177382 0.026361 127.00259652 3.72301929 130.75512695 7.48706055 C131.40868164 8.10000977 132.06223633 8.71295898 132.7355957 9.34448242 C137.29736618 13.87263985 137.29736618 13.87263985 137.65356445 17.86206055 C135.99494564 21.68807696 133.60484475 24.28033751 130.63012695 27.11206055 C129.75602173 27.96018311 129.75602173 27.96018311 128.86425781 28.82543945 C109.63373193 47.04002278 86.03189974 55.93935866 59.81762695 56.04956055 C58.6181543 56.07018555 57.41868164 56.09081055 56.18286133 56.11206055 C27.81372676 56.23453927 5.27264647 42.28542156 -14.6862793 23.29174805 C-17.10813179 20.17024928 -17.89746259 18.77834402 -17.61987305 14.79956055 C-15.60924586 11.77135273 -13.11545802 9.36462286 -10.49487305 6.86206055 C-9.81682617 6.16532227 -9.1387793 5.46858398 -8.44018555 4.75073242 C-3.34001883 -0.25553587 -3.34001883 -0.25553587 0 0 Z " fill="#FEFCFD" transform="translate(52.619873046875,93.200439453125)"/>
</svg>
